<svg width="334" height="118" viewBox="0 0 334 118" fill="none" xmlns="http://www.w3.org/2000/svg">
<g clip-path="url(#clip0_30_175)">
<rect width="334" height="118" rx="30" fill="#4F0886"/>
<path fill-rule="evenodd" clip-rule="evenodd" d="M334.516 -61.6635C327.755 -54.9191 319.36 -45.6737 316.702 -35.1802C315.871 -31.901 315.6 -28.4986 316.113 -25.0129C315.553 -22.5455 315.316 -20.0106 315.496 -17.4251C315.429 -17.1865 315.365 -16.9472 315.304 -16.7073C314.832 -14.8432 314.541 -12.9393 314.472 -11.0028C314.153 -10.0971 313.873 -9.18081 313.639 -8.25481C313.569 -7.97766 313.502 -7.69964 313.44 -7.42076C307.277 -0.994805 300.58 7.21779 298.258 16.3824C296.927 21.6383 297.033 27.211 299.503 32.9354C301.972 38.6571 306.794 44.5081 314.854 50.338C333.631 63.9195 351.102 64.6009 364.506 65.1236C365.751 65.1721 366.96 65.2193 368.133 65.2753C375.053 65.606 380.594 66.2445 384.45 69.1875C388.286 72.115 390.528 77.3906 390.641 87.1987L391.23 87.2126C391.117 77.3553 388.866 71.8574 384.812 68.763C380.778 65.684 375.033 65.052 368.142 64.7227C366.967 64.6666 365.757 64.6193 364.513 64.5706C351.115 64.0468 333.821 63.3705 315.202 49.904C307.206 44.1198 302.466 38.3467 300.048 32.7435C297.631 27.1429 297.524 21.69 298.831 16.5287C301.038 7.81849 307.27 -0.0502673 313.223 -6.34749L313.217 -6.31736C313.066 -5.98484 312.919 -5.65068 312.777 -5.31491C308.671 -0.207536 305.04 5.61082 303.454 11.8738C302.122 17.1297 302.228 22.7024 304.699 28.4267C307.168 34.1484 311.989 39.9994 320.049 45.8293C338.827 59.4109 356.298 60.0922 369.701 60.615C370.946 60.6635 372.156 60.7107 373.328 60.7667C380.248 61.0973 385.79 61.7358 389.646 64.6788C393.481 67.6064 395.724 72.8819 395.837 82.6901L396.426 82.704C396.312 72.8467 394.061 67.3488 390.007 64.2544C385.973 61.1754 380.229 60.5433 373.337 60.2141C372.163 60.158 370.953 60.1106 369.709 60.062C356.311 59.5381 339.016 58.8619 320.398 45.3954C312.401 39.6112 307.661 33.8381 305.243 28.2349C302.826 22.6343 302.719 17.1814 304.027 12.0201C305.326 6.8944 308.018 2.06012 311.227 -2.33401C309.732 0.396816 308.527 3.25478 307.778 6.21189C306.447 11.4678 306.553 17.0405 309.023 22.7648C311.492 28.4865 316.314 34.3375 324.374 40.1674C343.151 53.749 360.622 54.4303 374.026 54.9531L374.027 54.9531L374.027 54.9531L374.032 54.9533L374.035 54.9534C375.277 55.0019 376.483 55.0489 377.653 55.1048C384.573 55.4354 390.114 56.0739 393.97 59.0169C397.806 61.9445 400.048 67.22 400.161 77.0282L400.75 77.0421C400.637 67.1848 398.386 61.6869 394.332 58.5925C390.298 55.5135 384.553 54.8814 377.662 54.5522C376.487 54.4961 375.277 54.4487 374.033 54.4001C360.635 53.8762 343.341 53.2 324.723 39.7335C316.726 33.9493 311.986 28.1762 309.568 22.573C307.151 16.9724 307.044 11.5195 308.351 6.3582C309.027 3.69017 310.081 1.1011 311.389 -1.38804C311.31 -1.10971 311.234 -0.830471 311.163 -0.550343C309.832 4.70553 309.938 10.2783 312.408 16.0026C314.878 21.7243 319.699 27.5753 327.759 33.4052C346.536 46.9868 364.007 47.6681 377.411 48.1908L377.413 48.1909C378.657 48.2394 379.866 48.2866 381.038 48.3426C387.958 48.6732 393.5 49.3117 397.356 52.2547C401.191 55.1823 403.434 60.4578 403.547 70.2659L404.136 70.2799C404.022 60.4225 401.771 54.9247 397.717 51.8302C393.683 48.7513 387.939 48.1192 381.047 47.7899C379.872 47.7338 378.662 47.6865 377.419 47.6379C364.021 47.114 346.726 46.4378 328.108 32.9713C320.111 27.1871 315.371 21.414 312.953 15.8107C310.536 10.2102 310.429 4.75723 311.737 -0.404034C312.049 -1.63723 312.442 -2.85355 312.904 -4.05095C312.526 -0.0611734 313.062 4.07727 314.884 8.29815C317.353 14.0198 322.174 19.8708 330.234 25.7007C349.012 39.2823 366.483 39.9636 379.887 40.4864C381.131 40.5349 382.341 40.5821 383.513 40.6381C390.434 40.9687 395.975 41.6072 399.831 44.5503C403.666 47.4778 405.909 52.7533 406.022 62.5615L406.611 62.5754C406.497 52.7181 404.246 47.2202 400.192 44.1258C396.158 41.0468 390.414 40.4147 383.522 40.0855C382.348 40.0294 381.138 39.982 379.894 39.9334C366.496 39.4096 349.201 38.7333 330.583 25.2668C322.586 19.4826 317.847 13.7095 315.428 8.10627C313.458 3.54022 313.023 -0.927705 313.638 -5.21945C313.889 -5.60671 314.144 -5.99103 314.405 -6.37233C314.5 -6.48578 314.596 -6.59888 314.691 -6.71159C314.993 -4.55483 315.595 -2.36592 316.549 -0.154374C319.019 5.56731 323.84 11.4183 331.9 17.2482C350.677 30.8298 368.148 31.5111 381.552 32.0339C382.797 32.0824 384.007 32.1296 385.179 32.1856C392.099 32.5162 397.641 33.1547 401.497 36.0977C405.332 39.0253 407.575 44.3008 407.688 54.109L408.277 54.1229C408.163 44.2656 405.912 38.7677 401.858 35.6733C397.824 32.5943 392.08 31.9622 385.188 31.633C384.013 31.5768 382.803 31.5295 381.56 31.4809C368.162 30.957 350.867 30.2808 332.249 16.8143C324.252 11.0301 319.512 5.25697 317.094 -0.346245C316.079 -2.69739 315.472 -5.02251 315.205 -7.31096C315.906 -8.12082 316.613 -8.91048 317.32 -9.67874C317.388 -9.51162 317.458 -9.34437 317.531 -9.17699C320 -3.45531 324.821 2.39571 332.881 8.22558C351.658 21.8072 369.13 22.4885 382.533 23.0112L382.536 23.0113L382.539 23.0114L382.544 23.0116L382.549 23.0118C383.789 23.0602 384.993 23.1072 386.16 23.163C393.08 23.4936 398.622 24.1321 402.478 27.0751C406.313 30.0027 408.556 35.2782 408.669 45.0864L409.258 45.1003C409.144 35.2429 406.893 29.7451 402.839 26.6506C398.805 23.5717 393.061 22.9396 386.169 22.6103C384.995 22.5542 383.784 22.5069 382.541 22.4583C369.143 21.9344 351.848 21.2582 333.23 7.79167C325.233 2.00747 320.493 -3.76565 318.075 -9.36887C317.963 -9.62873 317.856 -9.88828 317.754 -10.1475C318.804 -11.2761 319.85 -12.3569 320.87 -13.3859C323.641 -9.35581 327.684 -5.2851 333.298 -1.22464C352.075 12.357 369.546 13.0383 382.95 13.561C384.194 13.6096 385.404 13.6567 386.576 13.7127C393.497 14.0434 399.038 14.6819 402.894 17.6249C406.729 20.5524 408.972 25.828 409.085 35.6361L409.674 35.65C409.56 25.7927 407.309 20.2948 403.255 17.2004C399.221 14.1214 393.477 13.4894 386.585 13.1601C385.411 13.104 384.201 13.0567 382.957 13.0081C369.559 12.4842 352.264 11.8079 333.646 -1.65856C328.019 -5.72842 324.005 -9.79279 321.278 -13.7964L321.462 -13.9815L321.704 -14.2225L321.268 -14.6095C321.162 -14.5035 321.055 -14.3968 320.948 -14.2895C320.912 -14.3451 320.875 -14.4008 320.839 -14.4564C322.59 -16.4006 324.356 -18.2161 326.028 -19.8844L325.593 -20.2714C323.961 -18.6435 322.233 -16.8698 320.515 -14.9681C320.295 -15.3212 320.086 -15.6738 319.886 -16.0258C322.924 -19.9898 326.328 -23.5687 329.413 -26.6467L328.978 -27.0336C325.951 -24.0143 322.597 -20.4938 319.577 -16.5844C319.251 -17.1866 318.954 -17.7872 318.683 -18.3859C322.399 -24.5081 327.47 -29.9434 331.889 -34.3511L331.453 -34.7381C327.126 -30.4215 322.129 -25.0804 318.396 -19.0433C318.063 -19.8344 317.776 -20.6225 317.532 -21.4072C321.101 -29.7571 327.868 -37.1312 333.554 -42.8037L333.119 -43.1906C327.585 -37.6707 320.957 -30.4754 317.276 -22.2917C317.033 -23.1904 316.846 -24.0844 316.711 -24.9732C316.758 -25.1771 316.807 -25.3806 316.859 -25.5836C319.479 -35.9244 327.772 -45.0791 334.536 -51.8263L334.1 -52.2133C327.528 -45.657 319.411 -36.7372 316.521 -26.6049C316.287 -29.4822 316.582 -32.299 317.275 -35.0339C319.895 -45.3746 328.188 -54.5293 334.952 -61.2765L334.516 -61.6635ZM314.565 -7.74686C314.494 -7.60931 314.425 -7.47146 314.356 -7.33332C314.43 -7.43873 314.504 -7.5439 314.579 -7.64881L314.569 -7.75086L314.565 -7.74686ZM316.271 -9.92485C316.483 -10.1987 316.697 -10.4707 316.912 -10.7407C316.829 -10.9724 316.75 -11.2039 316.674 -11.435C316.291 -10.8284 315.922 -10.2149 315.567 -9.5946C315.736 -9.76488 315.905 -9.93365 316.073 -10.1009L316.271 -9.92485ZM320.538 -13.8775C319.927 -13.2614 319.304 -12.6257 318.676 -11.9715C319.261 -12.6676 319.852 -13.3497 320.446 -14.0171L320.506 -13.9258L320.538 -13.8775ZM320.118 -14.5269C319.907 -14.8621 319.705 -15.197 319.511 -15.5316C318.664 -14.4072 317.85 -13.2528 317.081 -12.0708C317.162 -11.8048 317.248 -11.5384 317.34 -11.2716C318.25 -12.3925 319.182 -13.4786 320.118 -14.5269ZM314.411 -8.72306L314.337 -8.58501C314.382 -8.75153 314.429 -8.91774 314.477 -9.08364C314.48 -9.0107 314.483 -8.93772 314.487 -8.8647L314.411 -8.72306ZM316.445 -12.1698C315.959 -11.4141 315.491 -10.6469 315.045 -9.86909C315.042 -10.2091 315.046 -10.5482 315.057 -10.8863C315.368 -11.7613 315.716 -12.6266 316.097 -13.4815C316.2 -13.0454 316.316 -12.6081 316.445 -12.1698ZM319.196 -16.0872C318.389 -15.0235 317.608 -13.9319 316.867 -12.8145C316.726 -13.331 316.605 -13.846 316.501 -14.3594C317.054 -15.5232 317.666 -16.6667 318.326 -17.7878C318.592 -17.2221 318.882 -16.6552 319.196 -16.0872ZM318.028 -18.4399C318.001 -18.5023 317.974 -18.5648 317.947 -18.6272C317.665 -19.2809 317.413 -19.9326 317.192 -20.5821C316.768 -19.5202 316.398 -18.4431 316.09 -17.3523C316.139 -16.6851 316.216 -16.0146 316.323 -15.341C316.849 -16.392 317.42 -17.4255 318.028 -18.4399ZM315.889 -14.4449C315.806 -14.8681 315.735 -15.2901 315.676 -15.7109C315.471 -14.7852 315.312 -13.8505 315.205 -12.9075C315.421 -13.4238 315.649 -13.9363 315.889 -14.4449ZM316.911 -21.4545C316.588 -20.689 316.292 -19.9151 316.026 -19.1334C316.027 -20.583 316.158 -22.0157 316.4 -23.4287C316.541 -22.7732 316.711 -22.1151 316.911 -21.4545ZM292.347 19.8258C295.006 9.33223 303.401 0.0868259 310.162 -6.65754L310.597 -6.27056C303.833 0.476598 295.54 9.63133 292.92 19.9721C291.613 25.1333 291.72 30.5863 294.137 36.1868C296.555 41.7901 301.295 47.5632 309.292 53.3474C327.91 66.8139 345.204 67.4901 358.602 68.014C359.846 68.0626 361.056 68.1099 362.231 68.166C369.122 68.4953 374.867 69.1274 378.901 72.2064C382.955 75.3008 385.206 80.7986 385.319 90.656L384.731 90.642C384.617 80.8339 382.375 75.5584 378.539 72.6308C374.684 69.6878 369.142 69.0493 362.222 68.7187C361.049 68.6627 359.84 68.6155 358.595 68.5669C345.191 68.0442 327.72 67.3629 308.943 53.7813C300.883 47.9514 296.061 42.1004 293.592 36.3787C291.122 30.6544 291.016 25.0816 292.347 19.8258ZM303.726 -4.08031C296.965 2.66406 288.57 11.9095 285.912 22.403C284.58 27.6589 284.686 33.2316 287.156 38.9559C289.626 44.6776 294.447 50.5287 302.507 56.3585C321.284 69.9401 338.755 70.6214 352.159 71.1442L352.159 71.1442C353.404 71.1927 354.614 71.2399 355.786 71.2959C362.706 71.6265 368.248 72.265 372.104 75.208C375.939 78.1356 378.182 83.4111 378.295 93.2193L378.884 93.2332C378.77 83.3759 376.519 77.878 372.465 74.7836C368.431 71.7046 362.687 71.0725 355.795 70.7433C354.621 70.6872 353.41 70.6398 352.167 70.5912C338.769 70.0674 321.474 69.3911 302.856 55.9246C294.859 50.1404 290.119 44.3673 287.701 38.7641C285.284 33.1635 285.177 27.7106 286.485 22.5493C289.105 12.2086 297.398 3.05383 304.162 -3.69333L303.726 -4.08031ZM279.127 24.3579C281.786 13.8644 290.181 4.61897 296.942 -2.1254L297.377 -1.73842C290.613 5.00874 282.32 14.1635 279.7 24.5042C278.393 29.6655 278.5 35.1184 280.917 40.719C283.335 46.3222 288.075 52.0953 296.071 57.8795C314.689 71.346 331.984 72.0223 345.382 72.5461C346.626 72.5948 347.836 72.6421 349.01 72.6982C355.902 73.0274 361.647 73.6595 365.681 76.7385C369.735 79.8329 371.986 85.3308 372.099 95.1881L371.51 95.1742C371.397 85.3661 369.155 80.0905 365.319 77.163C361.463 74.2199 355.922 73.5814 349.002 73.2508C347.829 73.1948 346.62 73.1476 345.375 73.0991C331.971 72.5764 314.5 71.895 295.723 58.3134C287.663 52.4836 282.841 46.6325 280.372 40.9109C277.902 35.1865 277.795 29.6138 279.127 24.3579ZM289.952 -0.557702C283.191 6.18667 274.796 15.4321 272.138 25.9256C270.806 31.1815 270.912 36.7542 273.383 42.4786C275.852 48.2002 280.673 54.0513 288.734 59.8811C307.511 73.4627 324.982 74.1441 338.386 74.6668C339.63 74.7153 340.84 74.7625 342.012 74.8185C348.933 75.1491 354.474 75.7876 358.33 78.7307C362.165 81.6582 364.408 86.9337 364.521 96.7419L365.11 96.7558C364.996 86.8985 362.745 81.4006 358.691 78.3062C354.657 75.2272 348.913 74.5951 342.021 74.2659C340.847 74.2098 339.637 74.1625 338.393 74.1138C324.995 73.59 307.7 72.9137 289.082 59.4472C281.085 53.663 276.346 47.8899 273.927 42.2867C271.511 36.6861 271.403 31.2332 272.711 26.0719C275.331 15.7312 283.624 6.57644 290.388 -0.17072L289.952 -0.557702ZM265.051 27.3041C267.71 16.8106 276.105 7.56518 282.866 0.820812L283.301 1.20779C276.538 7.95495 268.244 17.1097 265.625 27.4504C264.317 32.6117 264.424 38.0646 266.841 43.6652C269.259 49.2684 273.999 55.0415 281.996 60.8257C300.614 74.2922 317.909 74.9685 331.307 75.4923C332.55 75.541 333.76 75.5883 334.935 75.6444C341.827 75.9737 347.571 76.6057 351.605 79.6847C355.659 82.7791 357.91 88.277 358.024 98.1343L357.435 98.1204C357.322 88.3123 355.079 83.0367 351.243 80.1092C347.388 77.1662 341.846 76.5276 334.926 76.197C333.754 76.141 332.544 76.0938 331.299 76.0453C317.895 75.5226 300.424 74.8412 281.647 61.2597C273.587 55.4298 268.765 49.5788 266.296 43.8571C263.826 38.1327 263.72 32.56 265.051 27.3041ZM275.764 2.16757C269.003 8.91193 260.608 18.1573 257.95 28.6509C256.618 33.9067 256.724 39.4795 259.195 45.2038C261.664 50.9255 266.485 56.7765 274.545 62.6064C293.323 76.188 310.794 76.8693 324.198 77.3921C325.442 77.4406 326.652 77.4878 327.824 77.5438C334.744 77.8744 340.286 78.5129 344.142 81.4559C347.977 84.3835 350.22 89.659 350.333 99.4672L350.922 99.4811C350.808 89.6238 348.557 84.1259 344.503 81.0315C340.469 77.9525 334.725 77.3204 327.833 76.9911C326.659 76.935 325.449 76.8877 324.205 76.8391C310.807 76.3152 293.512 75.639 274.894 62.1725C266.897 56.3883 262.158 50.6152 259.739 45.0119C257.323 39.4114 257.215 33.9584 258.523 28.7972C261.143 18.4564 269.436 9.3017 276.2 2.55455L275.764 2.16757ZM250.891 30.084C253.549 19.5904 261.944 10.345 268.705 3.60068L269.141 3.98766C262.377 10.7348 254.084 19.8896 251.464 30.2303C250.156 35.3916 250.264 40.8445 252.68 46.4451C255.099 52.0483 259.838 57.8214 267.835 63.6056C286.453 77.0721 303.748 77.7483 317.146 78.2722C318.39 78.3208 319.6 78.3682 320.774 78.4243C327.666 78.7535 333.41 79.3856 337.444 82.4646C341.498 85.559 343.749 91.0569 343.863 100.914L343.274 100.9C343.161 91.0921 340.918 85.8166 337.083 82.889C333.227 79.946 327.686 79.3075 320.765 78.9769C319.593 78.9209 318.383 78.8737 317.139 78.8252C303.735 78.3024 286.264 77.6211 267.487 64.0395C259.426 58.2096 254.605 52.3586 252.136 46.6369C249.665 40.9126 249.559 35.3399 250.891 30.084ZM261.736 5.20689C254.975 11.9513 246.58 21.1967 243.921 31.6902C242.59 36.9461 242.696 42.5188 245.166 48.2431C247.636 53.9648 252.457 59.8158 260.517 65.6457C279.294 79.2273 296.765 79.9086 310.169 80.4314L310.169 80.4314C311.414 80.4799 312.624 80.5271 313.796 80.5831C320.716 80.9137 326.258 81.5522 330.114 84.4953C333.949 87.4228 336.192 92.6983 336.305 102.506L336.894 102.52C336.78 92.6631 334.529 87.1652 330.475 84.0708C326.441 80.9918 320.697 80.3597 313.805 80.0305C312.63 79.9744 311.42 79.927 310.177 79.8784C296.779 79.3546 279.484 78.6783 260.866 65.2118C252.869 59.4276 248.129 53.6545 245.711 48.0513C243.294 42.4507 243.187 36.9978 244.495 31.8365C247.115 21.4958 255.408 12.341 262.171 5.59387L261.736 5.20689ZM237.075 33.5295C239.734 23.036 248.129 13.7906 254.89 7.04624L255.325 7.43322C248.562 14.1804 240.268 23.3351 237.649 33.6759C236.341 38.8371 236.448 44.2901 238.865 49.8906C241.283 55.4938 246.023 61.267 254.02 67.0512C272.638 80.5177 289.933 81.1939 303.33 81.7178C304.574 81.7664 305.784 81.8137 306.959 81.8698C313.85 82.1991 319.595 82.8312 323.629 85.9101C327.683 89.0046 329.934 94.5024 330.048 104.36L329.459 104.346C329.346 94.5377 327.103 89.2622 323.267 86.3346C319.412 83.3916 313.87 82.7531 306.95 82.4225C305.778 82.3664 304.568 82.3193 303.323 82.2707L303.323 82.2707C289.919 81.748 272.448 81.0667 253.671 67.4851C245.611 61.6552 240.789 55.8042 238.32 50.0825C235.85 44.3582 235.744 38.7854 237.075 33.5295ZM248.191 9.15866C241.43 15.903 233.035 25.1484 230.377 35.642C229.045 40.8978 229.151 46.4706 231.622 52.1949C234.091 57.9166 238.912 63.7676 246.972 69.5975C265.749 83.1791 283.221 83.8604 296.624 84.3832L296.624 84.3831L296.624 84.3831C297.869 84.4317 299.079 84.4789 300.251 84.5349C307.171 84.8655 312.713 85.504 316.569 88.447C320.404 91.3746 322.647 96.6501 322.76 106.458L323.349 106.472C323.235 96.6148 320.984 91.117 316.93 88.0226C312.896 84.9436 307.152 84.3115 300.26 83.9822C299.086 83.9261 297.875 83.8788 296.632 83.8302C283.234 83.3063 265.939 82.6301 247.321 69.1636C239.324 63.3794 234.584 57.6063 232.166 52.003C229.749 46.4025 229.642 40.9495 230.95 35.7883C233.57 25.4475 241.863 16.2928 248.627 9.54564L248.191 9.15866Z" fill="url(#paint0_radial_30_175)" fill-opacity="0.58"/>
<path d="M21.34 17.16L20.32 23H19.42L20.65 16H21.91L23.96 21.88L25 16H25.9L24.67 23H23.43L21.34 17.16ZM28.6315 23.12C28.1915 23.12 27.8015 23.0267 27.4615 22.84C27.1282 22.6467 26.8648 22.3733 26.6715 22.02C26.4848 21.66 26.3915 21.2367 26.3915 20.75C26.3915 20.1967 26.5048 19.6867 26.7315 19.22C26.9648 18.7533 27.2915 18.38 27.7115 18.1C28.1382 17.82 28.6348 17.68 29.2015 17.68C29.5882 17.68 29.9148 17.7533 30.1815 17.9C30.4548 18.0467 30.6648 18.2367 30.8115 18.47C30.9582 18.7033 31.0315 18.9533 31.0315 19.22C31.0315 19.5867 30.9448 19.89 30.7715 20.13C30.5982 20.37 30.3748 20.5567 30.1015 20.69C29.8282 20.8167 29.5315 20.9067 29.2115 20.96C28.8982 21.0133 28.5982 21.04 28.3115 21.04C28.1315 21.04 27.9515 21.0333 27.7715 21.02C27.5982 21 27.4448 20.98 27.3115 20.96C27.3648 21.4 27.5215 21.7367 27.7815 21.97C28.0415 22.2033 28.3748 22.32 28.7815 22.32C29.1148 22.32 29.4115 22.2767 29.6715 22.19C29.9315 22.1033 30.1515 22.0167 30.3315 21.93L30.4115 22.73C30.2115 22.8233 29.9582 22.9133 29.6515 23C29.3448 23.08 29.0048 23.12 28.6315 23.12ZM29.1315 18.44C28.8182 18.44 28.5348 18.52 28.2815 18.68C28.0282 18.8333 27.8182 19.0467 27.6515 19.32C27.4915 19.5867 27.3848 19.8933 27.3315 20.24C27.4848 20.2667 27.6382 20.29 27.7915 20.31C27.9515 20.3233 28.1248 20.33 28.3115 20.33C28.8715 20.33 29.3148 20.2533 29.6415 20.1C29.9682 19.94 30.1315 19.67 30.1315 19.29C30.1315 19.0567 30.0382 18.8567 29.8515 18.69C29.6715 18.5233 29.4315 18.44 29.1315 18.44ZM32.4973 23L31.7173 17.87L32.5873 17.75L33.1773 22L35.0673 18.17H36.0173L36.5373 22L38.6373 17.75L39.3773 18.13L36.8873 23H35.8973L35.3773 19.18L33.4873 23H32.4973Z" fill="#FBFBFB"/>
<path d="M24.33 88.823C23.68 88.823 23.095 89.0137 22.575 89.395C22.055 89.7763 21.6433 90.305 21.34 90.981C21.0367 91.657 20.885 92.437 20.885 93.321C20.885 94.1357 21.08 94.7987 21.47 95.31C21.86 95.8213 22.3973 96.077 23.082 96.077C23.4807 96.077 23.849 95.9773 24.187 95.778C24.525 95.5787 24.811 95.3057 25.045 94.959C25.279 94.6123 25.435 94.2223 25.513 93.789L25.63 93.152H23.732L23.901 92.177H26.956L26.449 95.102C26.4403 95.1453 26.4317 95.1973 26.423 95.258C26.423 95.31 26.423 95.3663 26.423 95.427C26.423 95.661 26.488 95.83 26.618 95.934C26.7567 96.038 26.9473 96.09 27.19 96.09L26.761 97.065C25.8077 97.065 25.331 96.6013 25.331 95.674C25.0623 96.09 24.7157 96.441 24.291 96.727C23.8663 97.013 23.3507 97.156 22.744 97.156C22.146 97.156 21.6087 97.013 21.132 96.727C20.664 96.4323 20.2913 96.012 20.014 95.466C19.7453 94.9113 19.611 94.2527 19.611 93.49C19.611 92.6667 19.728 91.904 19.962 91.202C20.196 90.5 20.5253 89.8933 20.95 89.382C21.3747 88.862 21.8773 88.459 22.458 88.173C23.0473 87.887 23.693 87.744 24.395 87.744C24.9497 87.744 25.4393 87.822 25.864 87.978C26.2887 88.1253 26.6787 88.316 27.034 88.55L26.384 89.538C26.072 89.3213 25.7557 89.148 25.435 89.018C25.123 88.888 24.7547 88.823 24.33 88.823ZM31.2214 97.156C30.5801 97.156 30.0254 97.026 29.5574 96.766C29.0894 96.506 28.7254 96.1463 28.4654 95.687C28.2141 95.219 28.0884 94.6903 28.0884 94.101C28.0884 93.347 28.2401 92.6667 28.5434 92.06C28.8554 91.4533 29.2888 90.9723 29.8434 90.617C30.3981 90.2617 31.0524 90.084 31.8064 90.084C32.4478 90.084 33.0024 90.214 33.4704 90.474C33.9384 90.734 34.2981 91.0937 34.5494 91.553C34.8094 92.0123 34.9394 92.541 34.9394 93.139C34.9394 93.8843 34.7878 94.5647 34.4844 95.18C34.1811 95.7867 33.7478 96.2677 33.1844 96.623C32.6298 96.9783 31.9754 97.156 31.2214 97.156ZM31.2604 96.116C31.7804 96.116 32.2224 95.9903 32.5864 95.739C32.9591 95.479 33.2451 95.1323 33.4444 94.699C33.6438 94.2657 33.7434 93.7803 33.7434 93.243C33.7434 92.8443 33.6654 92.489 33.5094 92.177C33.3534 91.8563 33.1281 91.6007 32.8334 91.41C32.5388 91.2193 32.1834 91.124 31.7674 91.124C31.2561 91.124 30.8141 91.254 30.4414 91.514C30.0688 91.7653 29.7828 92.1077 29.5834 92.541C29.3841 92.9743 29.2844 93.4597 29.2844 93.997C29.2844 94.387 29.3624 94.7423 29.5184 95.063C29.6744 95.3837 29.8998 95.6393 30.1944 95.83C30.4891 96.0207 30.8444 96.116 31.2604 96.116ZM41.018 91.605C40.8014 91.4663 40.5674 91.3537 40.316 91.267C40.0647 91.1717 39.7874 91.124 39.484 91.124C39.0074 91.124 38.587 91.2497 38.223 91.501C37.8677 91.7523 37.5904 92.0947 37.391 92.528C37.1917 92.9527 37.092 93.4337 37.092 93.971C37.092 94.6297 37.2567 95.154 37.586 95.544C37.924 95.9253 38.3747 96.116 38.938 96.116C39.2674 96.116 39.5577 96.077 39.809 95.999C40.0604 95.921 40.29 95.83 40.498 95.726L40.641 96.753C40.4244 96.8483 40.16 96.9393 39.848 97.026C39.5447 97.1127 39.1764 97.156 38.743 97.156C38.1797 97.156 37.6814 97.0303 37.248 96.779C36.8234 96.5277 36.4897 96.1767 36.247 95.726C36.013 95.2667 35.896 94.7337 35.896 94.127C35.896 93.399 36.0434 92.7317 36.338 92.125C36.6414 91.5097 37.066 91.0157 37.612 90.643C38.1667 90.2703 38.821 90.084 39.575 90.084C39.9824 90.084 40.342 90.136 40.654 90.24C40.9747 90.3353 41.2564 90.4567 41.499 90.604L41.018 91.605ZM47.1925 92.216C47.1925 91.8867 47.0929 91.6223 46.8935 91.423C46.7029 91.215 46.4515 91.111 46.1395 91.111C45.8362 91.111 45.5025 91.2193 45.1385 91.436C44.7832 91.6527 44.4582 91.9907 44.1635 92.45C43.8689 92.9093 43.6565 93.503 43.5265 94.231L43.0455 97H41.8755L43.5655 87.38H44.7355L43.9815 91.657C44.2502 91.1803 44.6012 90.799 45.0345 90.513C45.4765 90.227 45.9402 90.084 46.4255 90.084C47.0235 90.084 47.4959 90.266 47.8425 90.63C48.1979 90.9853 48.3755 91.423 48.3755 91.943C48.3755 92.1597 48.3495 92.4327 48.2975 92.762L47.5565 97H46.3865L47.1015 92.957C47.1449 92.749 47.1709 92.5973 47.1795 92.502C47.1882 92.398 47.1925 92.3027 47.1925 92.216ZM54.8478 92.216C54.8478 91.8867 54.7481 91.6223 54.5488 91.423C54.3581 91.215 54.1068 91.111 53.7948 91.111C53.4915 91.111 53.1578 91.2193 52.7938 91.436C52.4385 91.6527 52.1135 91.9907 51.8188 92.45C51.5241 92.9093 51.3118 93.503 51.1818 94.231L50.7008 97H49.5308L51.2208 87.38H52.3908L51.6368 91.657C51.9055 91.1803 52.2565 90.799 52.6898 90.513C53.1318 90.227 53.5955 90.084 54.0808 90.084C54.6788 90.084 55.1511 90.266 55.4978 90.63C55.8531 90.9853 56.0308 91.423 56.0308 91.943C56.0308 92.1597 56.0048 92.4327 55.9528 92.762L55.2118 97H54.0418L54.7568 92.957C54.8001 92.749 54.8261 92.5973 54.8348 92.502C54.8435 92.398 54.8478 92.3027 54.8478 92.216ZM59.2271 89.083C58.9844 89.083 58.7981 89.0137 58.6681 88.875C58.5467 88.7277 58.4861 88.5587 58.4861 88.368C58.4861 88.0907 58.5727 87.8697 58.7461 87.705C58.9194 87.5317 59.1361 87.445 59.3961 87.445C59.6387 87.445 59.8207 87.5187 59.9421 87.666C60.0721 87.8047 60.1371 87.9693 60.1371 88.16C60.1371 88.4287 60.0504 88.6497 59.8771 88.823C59.7037 88.9963 59.4871 89.083 59.2271 89.083ZM58.3561 97H57.1861L58.3691 90.24H59.5391L58.3561 97ZM62.2023 87.38H63.3722L62.6703 91.371C62.9043 90.9723 63.2119 90.6603 63.5933 90.435C63.9746 90.201 64.4036 90.084 64.8803 90.084C65.2529 90.084 65.5823 90.162 65.8683 90.318C66.1629 90.474 66.3926 90.6863 66.5573 90.955C66.7219 91.215 66.8043 91.5053 66.8043 91.826C66.8043 92.5107 66.5703 93.0177 66.1023 93.347C65.6429 93.6677 65.0579 93.828 64.3473 93.828C64.3039 93.828 64.2606 93.828 64.2173 93.828C64.1739 93.828 64.1219 93.8237 64.0613 93.815L65.1663 95.505C65.3136 95.7303 65.4783 95.895 65.6603 95.999C65.8509 96.103 66.1066 96.155 66.4273 96.155L66.0243 97.065C65.6256 97.065 65.2876 97.0087 65.0103 96.896C64.7329 96.7747 64.4859 96.5277 64.2693 96.155L62.6703 93.399L62.7873 93.022C62.9173 93.0827 63.0819 93.1347 63.2812 93.178C63.4806 93.2127 63.7059 93.23 63.9573 93.23C64.5206 93.23 64.9453 93.113 65.2313 92.879C65.5259 92.6363 65.6733 92.3287 65.6733 91.956C65.6733 91.6873 65.5736 91.462 65.3743 91.28C65.1836 91.0893 64.9236 90.994 64.5943 90.994C64.3516 90.994 64.0699 91.072 63.7493 91.228C63.4373 91.3753 63.1426 91.6397 62.8653 92.021C62.5879 92.4023 62.3886 92.9397 62.2673 93.633L61.6823 97H60.5123L62.2023 87.38ZM67.5708 94.335C67.5708 93.4943 67.7528 92.7577 68.1168 92.125C68.4895 91.4837 69.0008 90.9853 69.6508 90.63C70.3008 90.266 71.0418 90.084 71.8738 90.084C72.3852 90.084 72.8315 90.136 73.2128 90.24C73.6028 90.344 73.9235 90.448 74.1748 90.552L73.3558 95.167C73.3472 95.2103 73.3385 95.2623 73.3298 95.323C73.3298 95.375 73.3298 95.4313 73.3298 95.492C73.3298 95.7347 73.3992 95.908 73.5378 96.012C73.6765 96.1073 73.8585 96.155 74.0838 96.155L73.6808 97.065C73.2128 97.065 72.8532 96.9523 72.6018 96.727C72.3592 96.493 72.2378 96.1333 72.2378 95.648C71.9952 96.064 71.6875 96.4193 71.3148 96.714C70.9508 97.0087 70.5218 97.156 70.0278 97.156C69.6032 97.156 69.2045 97.0433 68.8318 96.818C68.4592 96.584 68.1558 96.259 67.9218 95.843C67.6878 95.4183 67.5708 94.9157 67.5708 94.335ZM72.8878 91.241C72.7232 91.189 72.5498 91.15 72.3678 91.124C72.1945 91.0893 71.9822 91.072 71.7308 91.072C71.1328 91.072 70.6128 91.2063 70.1708 91.475C69.7288 91.7437 69.3822 92.1163 69.1308 92.593C68.8882 93.061 68.7668 93.594 68.7668 94.192C68.7668 94.608 68.8405 94.959 68.9878 95.245C69.1438 95.531 69.3432 95.7477 69.5858 95.895C69.8285 96.0423 70.0798 96.116 70.3398 96.116C70.6952 96.116 71.0202 95.9947 71.3148 95.752C71.6095 95.5093 71.8608 95.1713 72.0688 94.738C72.2855 94.3047 72.4415 93.8107 72.5368 93.256L72.8878 91.241ZM76.3172 92.138C76.3259 92.0947 76.3302 92.047 76.3302 91.995C76.3389 91.9343 76.3432 91.8737 76.3432 91.813C76.3432 91.5703 76.2739 91.4013 76.1352 91.306C75.9965 91.202 75.8145 91.15 75.5892 91.15L75.9922 90.24C76.4515 90.24 76.8025 90.3527 77.0452 90.578C77.2965 90.7947 77.4222 91.1197 77.4222 91.553V91.813C77.6735 91.1977 77.9942 90.7557 78.3842 90.487C78.7829 90.2183 79.2335 90.084 79.7362 90.084C79.9355 90.084 80.1045 90.1013 80.2432 90.136C80.3905 90.162 80.5119 90.1967 80.6072 90.24L80.0872 91.384C79.9832 91.3407 79.8749 91.3103 79.7622 91.293C79.6495 91.2757 79.5195 91.267 79.3722 91.267C79.0602 91.267 78.7482 91.3797 78.4362 91.605C78.1329 91.8217 77.8555 92.1857 77.6042 92.697C77.3615 93.2083 77.1622 93.9103 77.0062 94.803L76.6292 97H75.4592L76.3172 92.138ZM80.4058 94.335C80.4058 93.4943 80.5878 92.7577 80.9518 92.125C81.3245 91.4837 81.8358 90.9853 82.4858 90.63C83.1358 90.266 83.8768 90.084 84.7088 90.084C85.2201 90.084 85.6665 90.136 86.0478 90.24C86.4378 90.344 86.7585 90.448 87.0098 90.552L86.1908 95.167C86.1821 95.2103 86.1735 95.2623 86.1648 95.323C86.1648 95.375 86.1648 95.4313 86.1648 95.492C86.1648 95.7347 86.2341 95.908 86.3728 96.012C86.5115 96.1073 86.6935 96.155 86.9188 96.155L86.5158 97.065C86.0478 97.065 85.6881 96.9523 85.4368 96.727C85.1941 96.493 85.0728 96.1333 85.0728 95.648C84.8301 96.064 84.5225 96.4193 84.1498 96.714C83.7858 97.0087 83.3568 97.156 82.8628 97.156C82.4381 97.156 82.0395 97.0433 81.6668 96.818C81.2941 96.584 80.9908 96.259 80.7568 95.843C80.5228 95.4183 80.4058 94.9157 80.4058 94.335ZM85.7228 91.241C85.5581 91.189 85.3848 91.15 85.2028 91.124C85.0295 91.0893 84.8171 91.072 84.5658 91.072C83.9678 91.072 83.4478 91.2063 83.0058 91.475C82.5638 91.7437 82.2171 92.1163 81.9658 92.593C81.7231 93.061 81.6018 93.594 81.6018 94.192C81.6018 94.608 81.6755 94.959 81.8228 95.245C81.9788 95.531 82.1781 95.7477 82.4208 95.895C82.6635 96.0423 82.9148 96.116 83.1748 96.116C83.5301 96.116 83.8551 95.9947 84.1498 95.752C84.4445 95.5093 84.6958 95.1713 84.9038 94.738C85.1205 94.3047 85.2765 93.8107 85.3718 93.256L85.7228 91.241Z" fill="#FBFBFB"/>
<path d="M22.116 33.89C22.686 33.7887 23.218 33.7063 23.712 33.643C24.2187 33.5797 24.8077 33.548 25.479 33.548C26.4417 33.548 27.2523 33.7 27.911 34.004C28.5697 34.308 29.07 34.7197 29.412 35.239C29.754 35.7457 29.925 36.3093 29.925 36.93C29.925 38.0827 29.5577 38.9503 28.823 39.533C28.0883 40.1157 27.1193 40.4957 25.916 40.673C26.4353 40.901 26.8407 41.186 27.132 41.528C27.4233 41.8573 27.6513 42.2057 27.816 42.573C27.9807 42.9403 28.1137 43.3013 28.215 43.656C28.329 44.0107 28.4493 44.3337 28.576 44.625C28.7027 44.9163 28.88 45.1507 29.108 45.328C29.3487 45.4927 29.678 45.575 30.096 45.575L29.431 47.133C28.8737 47.133 28.424 47.0253 28.082 46.81C27.74 46.5947 27.4613 46.316 27.246 45.974C27.0433 45.6193 26.8597 45.233 26.695 44.815C26.543 44.3843 26.3783 43.96 26.201 43.542C26.0237 43.1113 25.7957 42.725 25.517 42.383C25.2383 42.0283 24.8647 41.7433 24.396 41.528C23.94 41.3127 23.351 41.205 22.629 41.205L21.603 47H19.798L22.116 33.89ZM25.365 35.049C25.0357 35.049 24.7317 35.0617 24.453 35.087C24.187 35.1123 23.9337 35.1503 23.693 35.201L22.895 39.685H24.472C25.5867 39.685 26.4733 39.457 27.132 39.001C27.8033 38.545 28.139 37.9307 28.139 37.158C28.139 36.5373 27.892 36.0307 27.398 35.638C26.9167 35.2453 26.239 35.049 25.365 35.049ZM31.3182 43.105C31.3182 41.8763 31.5842 40.7997 32.1162 39.875C32.6609 38.9377 33.4082 38.2093 34.3582 37.69C35.3082 37.158 36.3912 36.892 37.6072 36.892C38.3546 36.892 39.0069 36.968 39.5642 37.12C40.1342 37.272 40.6029 37.424 40.9702 37.576L39.7732 44.321C39.7606 44.3843 39.7479 44.4603 39.7352 44.549C39.7352 44.625 39.7352 44.7073 39.7352 44.796C39.7352 45.1507 39.8366 45.404 40.0392 45.556C40.2419 45.6953 40.5079 45.765 40.8372 45.765L40.2482 47.095C39.5642 47.095 39.0386 46.9303 38.6712 46.601C38.3166 46.259 38.1392 45.7333 38.1392 45.024C37.7846 45.632 37.3349 46.1513 36.7902 46.582C36.2582 47.0127 35.6312 47.228 34.9092 47.228C34.2886 47.228 33.7059 47.0633 33.1612 46.734C32.6166 46.392 32.1732 45.917 31.8312 45.309C31.4892 44.6883 31.3182 43.9537 31.3182 43.105ZM39.0892 38.583C38.8486 38.507 38.5952 38.45 38.3292 38.412C38.0759 38.3613 37.7656 38.336 37.3982 38.336C36.5242 38.336 35.7642 38.5323 35.1182 38.925C34.4722 39.3177 33.9656 39.8623 33.5982 40.559C33.2436 41.243 33.0662 42.022 33.0662 42.896C33.0662 43.504 33.1739 44.017 33.3892 44.435C33.6172 44.853 33.9086 45.1697 34.2632 45.385C34.6179 45.6003 34.9852 45.708 35.3652 45.708C35.8846 45.708 36.3596 45.5307 36.7902 45.176C37.2209 44.8213 37.5882 44.3273 37.8922 43.694C38.2089 43.0607 38.4369 42.3387 38.5762 41.528L39.0892 38.583ZM49.4784 39.267C49.111 39.0137 48.6994 38.792 48.2434 38.602C47.8 38.412 47.2934 38.317 46.7234 38.317C46.128 38.317 45.6657 38.4183 45.3364 38.621C45.007 38.8237 44.8424 39.0897 44.8424 39.419C44.8424 39.609 44.893 39.7927 44.9944 39.97C45.1084 40.1347 45.3047 40.312 45.5834 40.502C45.8747 40.692 46.28 40.92 46.7994 41.186C47.6607 41.6167 48.3004 42.0663 48.7184 42.535C49.1364 42.991 49.3454 43.5547 49.3454 44.226C49.3454 44.8973 49.168 45.4547 48.8134 45.898C48.4587 46.3413 47.9837 46.677 47.3884 46.905C46.793 47.1203 46.1217 47.228 45.3744 47.228C44.6017 47.228 43.9177 47.133 43.3224 46.943C42.7397 46.7403 42.233 46.4807 41.8024 46.164L42.7714 44.758C43.1134 45.0367 43.5187 45.271 43.9874 45.461C44.456 45.651 44.969 45.746 45.5264 45.746C46.1597 45.746 46.66 45.6257 47.0274 45.385C47.3947 45.1443 47.5784 44.8467 47.5784 44.492C47.5784 44.1627 47.439 43.8587 47.1604 43.58C46.8944 43.3013 46.3687 42.9657 45.5834 42.573C44.95 42.2563 44.456 41.9523 44.1014 41.661C43.7467 41.357 43.4997 41.034 43.3604 40.692C43.221 40.35 43.1514 39.9573 43.1514 39.514C43.1514 39.0073 43.3034 38.5577 43.6074 38.165C43.9114 37.7723 44.3357 37.462 44.8804 37.234C45.425 37.006 46.052 36.892 46.7614 36.892C47.4707 36.892 48.104 36.987 48.6614 37.177C49.2314 37.3543 49.7317 37.5697 50.1624 37.823L49.4784 39.267ZM51.0048 43.105C51.0048 41.8763 51.2708 40.7997 51.8028 39.875C52.3474 38.9377 53.0948 38.2093 54.0448 37.69C54.9948 37.158 56.0778 36.892 57.2938 36.892C58.0411 36.892 58.6934 36.968 59.2508 37.12C59.8208 37.272 60.2894 37.424 60.6568 37.576L59.4598 44.321C59.4471 44.3843 59.4344 44.4603 59.4218 44.549C59.4218 44.625 59.4218 44.7073 59.4218 44.796C59.4218 45.1507 59.5231 45.404 59.7258 45.556C59.9284 45.6953 60.1944 45.765 60.5238 45.765L59.9348 47.095C59.2508 47.095 58.7251 46.9303 58.3578 46.601C58.0031 46.259 57.8258 45.7333 57.8258 45.024C57.4711 45.632 57.0214 46.1513 56.4768 46.582C55.9448 47.0127 55.3178 47.228 54.5958 47.228C53.9751 47.228 53.3924 47.0633 52.8478 46.734C52.3031 46.392 51.8598 45.917 51.5178 45.309C51.1758 44.6883 51.0048 43.9537 51.0048 43.105ZM58.7758 38.583C58.5351 38.507 58.2818 38.45 58.0158 38.412C57.7624 38.3613 57.4521 38.336 57.0848 38.336C56.2108 38.336 55.4508 38.5323 54.8048 38.925C54.1588 39.3177 53.6521 39.8623 53.2848 40.559C52.9301 41.243 52.7528 42.022 52.7528 42.896C52.7528 43.504 52.8604 44.017 53.0758 44.435C53.3038 44.853 53.5951 45.1697 53.9498 45.385C54.3044 45.6003 54.6718 45.708 55.0518 45.708C55.5711 45.708 56.0461 45.5307 56.4768 45.176C56.9074 44.8213 57.2748 44.3273 57.5788 43.694C57.8954 43.0607 58.1234 42.3387 58.2628 41.528L58.7758 38.583ZM22.021 55.852C22.5403 55.738 23.0597 55.6493 23.579 55.586C24.0983 55.51 24.738 55.472 25.498 55.472C26.5113 55.472 27.3727 55.6303 28.082 55.947C28.804 56.2637 29.393 56.7007 29.849 57.258C30.305 57.8027 30.6407 58.4297 30.856 59.139C31.0713 59.8357 31.179 60.5703 31.179 61.343C31.179 62.863 30.875 64.2183 30.267 65.409C29.659 66.5997 28.7977 67.537 27.683 68.221C26.5683 68.8923 25.2383 69.228 23.693 69.228C22.8823 69.228 22.1603 69.171 21.527 69.057C20.8937 68.9557 20.3173 68.81 19.798 68.62L22.021 55.852ZM25.346 56.992C25.0167 56.992 24.7063 57.011 24.415 57.049C24.1237 57.0743 23.8513 57.1187 23.598 57.182L21.812 67.423C22.1033 67.499 22.4137 67.5623 22.743 67.613C23.0723 67.651 23.427 67.67 23.807 67.67C24.909 67.67 25.8717 67.4103 26.695 66.891C27.531 66.3717 28.177 65.6497 28.633 64.725C29.089 63.7877 29.317 62.711 29.317 61.495C29.317 60.697 29.1777 59.956 28.899 59.272C28.6203 58.588 28.1897 58.037 27.607 57.619C27.0243 57.201 26.2707 56.992 25.346 56.992ZM35.2846 57.429C34.93 57.429 34.6576 57.3277 34.4676 57.125C34.2903 56.9097 34.2016 56.6627 34.2016 56.384C34.2016 55.9787 34.3283 55.6557 34.5816 55.415C34.835 55.1617 35.1516 55.035 35.5316 55.035C35.8863 55.035 36.1523 55.1427 36.3296 55.358C36.5196 55.5607 36.6146 55.8013 36.6146 56.08C36.6146 56.4727 36.488 56.7957 36.2346 57.049C35.9813 57.3023 35.6646 57.429 35.2846 57.429ZM34.0116 69H32.3016L34.0306 59.12H35.7406L34.0116 69ZM52.1693 62.939H45.8233L44.7593 69H42.9543L45.2913 55.7H47.0963L46.0893 61.381H52.4353L53.4423 55.7H55.2473L52.9103 69H51.1053L52.1693 62.939ZM56.1815 65.105C56.1815 63.8763 56.4475 62.7997 56.9795 61.875C57.5242 60.9377 58.2715 60.2093 59.2215 59.69C60.1715 59.158 61.2545 58.892 62.4705 58.892C63.2178 58.892 63.8702 58.968 64.4275 59.12C64.9975 59.272 65.4662 59.424 65.8335 59.576L64.6365 66.321C64.6238 66.3843 64.6112 66.4603 64.5985 66.549C64.5985 66.625 64.5985 66.7073 64.5985 66.796C64.5985 67.1507 64.6998 67.404 64.9025 67.556C65.1052 67.6953 65.3712 67.765 65.7005 67.765L65.1115 69.095C64.4275 69.095 63.9018 68.9303 63.5345 68.601C63.1798 68.259 63.0025 67.7333 63.0025 67.024C62.6478 67.632 62.1982 68.1513 61.6535 68.582C61.1215 69.0127 60.4945 69.228 59.7725 69.228C59.1518 69.228 58.5692 69.0633 58.0245 68.734C57.4798 68.392 57.0365 67.917 56.6945 67.309C56.3525 66.6883 56.1815 65.9537 56.1815 65.105ZM63.9525 60.583C63.7118 60.507 63.4585 60.45 63.1925 60.412C62.9392 60.3613 62.6288 60.336 62.2615 60.336C61.3875 60.336 60.6275 60.5323 59.9815 60.925C59.3355 61.3177 58.8288 61.8623 58.4615 62.559C58.1068 63.243 57.9295 64.022 57.9295 64.896C57.9295 65.504 58.0372 66.017 58.2525 66.435C58.4805 66.853 58.7718 67.1697 59.1265 67.385C59.4812 67.6003 59.8485 67.708 60.2285 67.708C60.7478 67.708 61.2228 67.5307 61.6535 67.176C62.0842 66.8213 62.4515 66.3273 62.7555 65.694C63.0722 65.0607 63.3002 64.3387 63.4395 63.528L63.9525 60.583ZM67.7677 59.481H69.5157L70.4277 56.365H71.7387L71.1877 59.481H73.9237L73.6767 60.963H70.9217L70.1237 65.58C70.0983 65.7193 70.0793 65.8523 70.0667 65.979C70.054 66.093 70.0477 66.2007 70.0477 66.302C70.0477 66.7453 70.1807 67.0937 70.4467 67.347C70.7127 67.5877 71.061 67.708 71.4917 67.708C71.859 67.708 72.1693 67.6573 72.4227 67.556C72.676 67.442 72.904 67.328 73.1067 67.214L73.3157 68.696C73.075 68.8353 72.771 68.9557 72.4037 69.057C72.049 69.171 71.65 69.228 71.2067 69.228C70.738 69.228 70.282 69.133 69.8387 68.943C69.408 68.753 69.0533 68.4553 68.7747 68.05C68.496 67.632 68.3567 67.0937 68.3567 66.435C68.3567 66.1563 68.382 65.846 68.4327 65.504L69.2117 60.963H67.5207L67.7677 59.481ZM77.8305 57.429C77.4759 57.429 77.2035 57.3277 77.0135 57.125C76.8362 56.9097 76.7475 56.6627 76.7475 56.384C76.7475 55.9787 76.8742 55.6557 77.1275 55.415C77.3809 55.1617 77.6975 55.035 78.0775 55.035C78.4322 55.035 78.6982 55.1427 78.8755 55.358C79.0655 55.5607 79.1605 55.8013 79.1605 56.08C79.1605 56.4727 79.0339 56.7957 78.7805 57.049C78.5272 57.3023 78.2105 57.429 77.8305 57.429ZM76.5575 69H74.8475L76.5765 59.12H78.2865L76.5575 69Z" fill="#FBFBFB"/>
</g>
<defs>
<radialGradient id="paint0_radial_30_175" cx="0" cy="0" r="1" gradientUnits="userSpaceOnUse" gradientTransform="translate(307.981 40.641) rotate(44.6554) scale(82.2368 83.1472)">
<stop stop-color="white"/>
<stop offset="1" stop-color="#1E1E1E" stop-opacity="0"/>
<stop offset="1" stop-color="#0E0E35" stop-opacity="0"/>
<stop offset="1" stop-color="white" stop-opacity="0"/>
</radialGradient>
<clipPath id="clip0_30_175">
<rect width="334" height="118" rx="30" fill="white"/>
</clipPath>
</defs>
</svg>
